<svg xmlns="http://www.w3.org/2000/svg" width="720" height="260" viewBox="0 0 720 260" role="img" aria-labelledby="title desc">
  <title id="title">burro.cl logo</title>
  <desc id="desc">Logo de burro.cl: burro morado frontal con tipografía redondeada azul morada.</desc>
  <rect width="720" height="260" fill="none"/>
  <defs>
    <linearGradient id="brand" x1="0" x2="1" y1="0" y2="1">
      <stop offset="0" stop-color="#4F46FF"/>
      <stop offset="1" stop-color="#2F1FEA"/>
    </linearGradient>
    <linearGradient id="muzzle" x1="0" x2="1" y1="0" y2="1">
      <stop offset="0" stop-color="#FFFFFF"/>
      <stop offset="1" stop-color="#ECEBFF"/>
    </linearGradient>
  </defs>
  <g transform="translate(28 26)">
    <path d="M67 98C18 9 42-15 112 77C97 83 82 90 67 98Z" fill="url(#brand)"/>
    <path d="M229 98C279 9 254-15 184 77C199 83 214 90 229 98Z" fill="url(#brand)"/>
    <path d="M85 84C55 28 67 21 104 78" fill="none" stroke="#F7F6FF" stroke-width="14" stroke-linecap="round" opacity=".85"/>
    <path d="M211 84C242 28 229 21 193 78" fill="none" stroke="#F7F6FF" stroke-width="14" stroke-linecap="round" opacity=".85"/>
    <ellipse cx="148" cy="132" rx="91" ry="88" fill="url(#brand)"/>
    <path d="M124 58C139 33 163 33 177 58C158 52 143 52 124 58Z" fill="#160070"/>
    <ellipse cx="148" cy="165" rx="76" ry="52" fill="url(#muzzle)"/>
    <ellipse cx="103" cy="132" rx="14" ry="23" fill="#160070"/>
    <circle cx="108" cy="122" r="6" fill="white"/>
    <path d="M174 131Q188 116 202 131" fill="none" stroke="#160070" stroke-width="12" stroke-linecap="round"/>
    <ellipse cx="126" cy="162" rx="9" ry="15" fill="#160070" transform="rotate(-18 126 162)"/>
    <ellipse cx="171" cy="162" rx="9" ry="15" fill="#160070" transform="rotate(18 171 162)"/>
    <path d="M105 190Q148 225 192 190" fill="none" stroke="#160070" stroke-width="11" stroke-linecap="round"/>
  </g>
  <text x="294" y="174" font-family="Arial Rounded MT Bold, Avenir Next, Arial, sans-serif" font-size="136" font-weight="900" fill="#3F35F2" letter-spacing="-8">burro</text>
  <circle cx="660" cy="173" r="12" fill="#3F35F2"/>
  <circle cx="694" cy="173" r="12" fill="#3F35F2"/>
</svg>
