<svg xmlns="http://www.w3.org/2000/svg" width="520" height="360" viewBox="0 0 520 360" role="img" aria-labelledby="title desc">
  <title id="title">Logo 35: Burro animal 35 · reserva</title>
  <desc id="desc">Logo para burro.cl con un burro animal al centro, estilo reserva.</desc>
  <rect width="520" height="360" rx="34" fill="#fffaf2"/>
  <rect x="18" y="18" width="484" height="324" rx="30" fill="white" stroke="#ead8c2" stroke-width="3"/>
  <path d="M260 22 L454 86 L420 250 H100 L66 86 Z" fill="#fffaf2" stroke="#70472e" stroke-width="8"/>
        <ellipse cx="230" cy="145" rx="90" ry="52" fill="#70472e" stroke="#20130d" stroke-width="8"/>
        <ellipse cx="336" cy="112" rx="39" ry="49" fill="#e45b2d" stroke="#20130d" stroke-width="8" transform="rotate(5 336 112)"/>
        <path d="M315 74 L293 20 L332 57 Z" fill="#2f7d5a" stroke="#20130d" stroke-width="7" stroke-linejoin="round"/>
        <path d="M355 74 L384 21 L381 78 Z" fill="#2f7d5a" stroke="#20130d" stroke-width="7" stroke-linejoin="round"/>
        <ellipse cx="345" cy="128" rx="25" ry="16" fill="#fffaf2" stroke="#20130d" stroke-width="5"/>
        <circle cx="350" cy="104" r="5" fill="#20130d"/>
        <circle cx="361" cy="127" r="3" fill="#20130d"/>
        <path d="M334 140 Q348 150 367 139" fill="none" stroke="#20130d" stroke-width="5" stroke-linecap="round"/>
        <rect x="176" y="175" width="17" height="50" rx="9" fill="#20130d"/><rect x="250" y="175" width="17" height="50" rx="9" fill="#20130d"/><rect x="300" y="167" width="17" height="53" rx="9" fill="#20130d"/>
        <path d="M155 139 Q119 110 108 73" fill="none" stroke="#20130d" stroke-width="10" stroke-linecap="round"/>
        <circle cx="106" cy="69" r="9" fill="#e45b2d"/>
        <circle cx="405" cy="70" r="28" fill="#2f7d5a"/><text x="405" y="80" text-anchor="middle" font-family="Arial" font-size="24" font-weight="900" fill="white">●</text>
  <text x="260" y="304" text-anchor="middle" font-family="Arial, Helvetica, sans-serif" font-size="42" font-weight="900" fill="#20130d" letter-spacing="-1.5">burro.cl</text>
  <text x="260" y="329" text-anchor="middle" font-family="Arial, Helvetica, sans-serif" font-size="13" font-weight="900" fill="#70472e" letter-spacing="2.5">RESERVA</text>
</svg>