<svg xmlns="http://www.w3.org/2000/svg" width="520" height="360" viewBox="0 0 520 360" role="img" aria-labelledby="title desc">
  <title id="title">Logo 44: Burro animal 44 · amistoso</title>
  <desc id="desc">Logo para burro.cl con un burro animal al centro, estilo amistoso.</desc>
  <rect width="520" height="360" rx="34" fill="#fffaf2"/>
  <rect x="18" y="18" width="484" height="324" rx="30" fill="white" stroke="#ead8c2" stroke-width="3"/>
  <rect x="64" y="42" width="392" height="200" rx="28" fill="#f4eadb" stroke="#a56a43" stroke-width="8"/><path d="M86 218 Q260 276 434 218" fill="none" stroke="#c85d2a" stroke-width="10" stroke-linecap="round"/>
        <polygon points="154,145 206,96 304,106 334,145 286,190 184,186" fill="#a56a43" stroke="#2a1b14" stroke-width="8" stroke-linejoin="round"/>
        <polygon points="314,103 361,70 398,122 379,172 327,168" fill="#c85d2a" stroke="#2a1b14" stroke-width="8" stroke-linejoin="round"/>
        <polygon points="328,71 312,22 354,58" fill="#233f32" stroke="#2a1b14" stroke-width="7"/>
        <polygon points="365,68 392,22 389,78" fill="#233f32" stroke="#2a1b14" stroke-width="7"/>
        <rect x="176" y="178" width="17" height="48" rx="8" fill="#2a1b14"/><rect x="248" y="178" width="17" height="48" rx="8" fill="#2a1b14"/><rect x="301" y="170" width="17" height="50" rx="8" fill="#2a1b14"/>
        <circle cx="363" cy="119" r="6" fill="#2a1b14"/><path d="M378 146 Q360 155 343 145" fill="none" stroke="#2a1b14" stroke-width="6" stroke-linecap="round"/>
        <path d="M154 145 L114 112" stroke="#c85d2a" stroke-width="9" stroke-linecap="round"/>
        <circle cx="405" cy="70" r="28" fill="#233f32"/><text x="405" y="80" text-anchor="middle" font-family="Arial" font-size="24" font-weight="900" fill="white">▣</text>
  <text x="260" y="304" text-anchor="middle" font-family="Arial, Helvetica, sans-serif" font-size="42" font-weight="900" fill="#2a1b14" letter-spacing="-1.5">burro.cl</text>
  <text x="260" y="329" text-anchor="middle" font-family="Arial, Helvetica, sans-serif" font-size="13" font-weight="900" fill="#a56a43" letter-spacing="2.5">AMISTOSO</text>
</svg>