<svg xmlns="http://www.w3.org/2000/svg" width="520" height="360" viewBox="0 0 520 360" role="img" aria-labelledby="title desc">
  <title id="title">Logo 36: Burro animal 36 · agenda</title>
  <desc id="desc">Logo para burro.cl con un burro animal al centro, estilo agenda.</desc>
  <rect width="520" height="360" rx="34" fill="#fffaf2"/>
  <rect x="18" y="18" width="484" height="324" rx="30" fill="white" stroke="#ead8c2" stroke-width="3"/>
  <rect x="64" y="42" width="392" height="200" rx="28" fill="#fff8ef" stroke="#b86b3a" stroke-width="8"/><path d="M86 218 Q260 276 434 218" fill="none" stroke="#e45b2d" stroke-width="10" stroke-linecap="round"/>
        <ellipse cx="230" cy="148" rx="97" ry="40" fill="#b86b3a" stroke="#241a14" stroke-width="8"/>
        <ellipse cx="320" cy="110" rx="43" ry="52" fill="#e45b2d" stroke="#241a14" stroke-width="8" transform="rotate(-7 320 110)"/>
        <path d="M299 72 L277 18 L316 55 Z" fill="#2f7d5a" stroke="#241a14" stroke-width="7" stroke-linejoin="round"/>
        <path d="M339 72 L368 19 L365 76 Z" fill="#2f7d5a" stroke="#241a14" stroke-width="7" stroke-linejoin="round"/>
        <ellipse cx="329" cy="126" rx="25" ry="16" fill="#fff8ef" stroke="#241a14" stroke-width="5"/>
        <circle cx="334" cy="102" r="5" fill="#241a14"/>
        <circle cx="345" cy="125" r="3" fill="#241a14"/>
        <path d="M318 138 Q332 148 351 137" fill="none" stroke="#241a14" stroke-width="5" stroke-linecap="round"/>
        <rect x="176" y="178" width="17" height="50" rx="9" fill="#241a14"/><rect x="250" y="178" width="17" height="50" rx="9" fill="#241a14"/><rect x="300" y="170" width="17" height="53" rx="9" fill="#241a14"/>
        <path d="M155 142 Q119 113 108 76" fill="none" stroke="#241a14" stroke-width="10" stroke-linecap="round"/>
        <circle cx="106" cy="72" r="9" fill="#e45b2d"/>
        <circle cx="405" cy="70" r="28" fill="#2f7d5a"/><text x="405" y="80" text-anchor="middle" font-family="Arial" font-size="24" font-weight="900" fill="white">+</text><path d="M93 205 H430" stroke="#e45b2d" stroke-width="7" stroke-linecap="round" opacity=".75"/>
  <text x="260" y="304" text-anchor="middle" font-family="Arial, Helvetica, sans-serif" font-size="42" font-weight="900" fill="#241a14" letter-spacing="-1.5">burro.cl</text>
  <text x="260" y="329" text-anchor="middle" font-family="Arial, Helvetica, sans-serif" font-size="13" font-weight="900" fill="#b86b3a" letter-spacing="2.5">AGENDA</text>
</svg>