<svg xmlns="http://www.w3.org/2000/svg" width="520" height="360" viewBox="0 0 520 360" role="img" aria-labelledby="title desc">
  <title id="title">Logo 08: Burro animal 08 · fuerte</title>
  <desc id="desc">Logo para burro.cl con un burro animal al centro, estilo fuerte.</desc>
  <rect width="520" height="360" rx="34" fill="#fffaf2"/>
  <rect x="18" y="18" width="484" height="324" rx="30" fill="white" stroke="#ead8c2" stroke-width="3"/>
  <rect x="64" y="42" width="392" height="200" rx="28" fill="#fff3e3" stroke="#5b3928" stroke-width="8"/><path d="M86 218 Q260 276 434 218" fill="none" stroke="#f08a4b" stroke-width="10" stroke-linecap="round"/>
        <ellipse cx="230" cy="145" rx="97" ry="46" fill="#5b3928" stroke="#1f1712" stroke-width="8"/>
        <ellipse cx="328" cy="110" rx="39" ry="52" fill="#f08a4b" stroke="#1f1712" stroke-width="8" transform="rotate(-1 328 110)"/>
        <path d="M307 72 L285 18 L324 55 Z" fill="#48725d" stroke="#1f1712" stroke-width="7" stroke-linejoin="round"/>
        <path d="M347 72 L376 19 L373 76 Z" fill="#48725d" stroke="#1f1712" stroke-width="7" stroke-linejoin="round"/>
        <ellipse cx="337" cy="126" rx="25" ry="16" fill="#fff3e3" stroke="#1f1712" stroke-width="5"/>
        <circle cx="342" cy="102" r="5" fill="#1f1712"/>
        <circle cx="353" cy="125" r="3" fill="#1f1712"/>
        <path d="M326 138 Q340 148 359 137" fill="none" stroke="#1f1712" stroke-width="5" stroke-linecap="round"/>
        <rect x="176" y="175" width="17" height="50" rx="9" fill="#1f1712"/><rect x="250" y="175" width="17" height="50" rx="9" fill="#1f1712"/><rect x="300" y="167" width="17" height="53" rx="9" fill="#1f1712"/>
        <path d="M155 139 Q119 110 108 73" fill="none" stroke="#1f1712" stroke-width="10" stroke-linecap="round"/>
        <circle cx="106" cy="69" r="9" fill="#f08a4b"/>
        <circle cx="405" cy="70" r="28" fill="#48725d"/><text x="405" y="80" text-anchor="middle" font-family="Arial" font-size="24" font-weight="900" fill="white">24</text><path d="M93 205 H430" stroke="#f08a4b" stroke-width="7" stroke-linecap="round" opacity=".75"/>
  <text x="260" y="304" text-anchor="middle" font-family="Arial, Helvetica, sans-serif" font-size="42" font-weight="900" fill="#1f1712" letter-spacing="-1.5">burro.cl</text>
  <text x="260" y="329" text-anchor="middle" font-family="Arial, Helvetica, sans-serif" font-size="13" font-weight="900" fill="#5b3928" letter-spacing="2.5">FUERTE</text>
</svg>