<svg xmlns="http://www.w3.org/2000/svg" width="520" height="360" viewBox="0 0 520 360" role="img" aria-labelledby="title desc">
  <title id="title">Logo 01: Burro animal 01 · sello</title>
  <desc id="desc">Logo para burro.cl con un burro animal al centro, estilo sello.</desc>
  <rect width="520" height="360" rx="34" fill="#fffaf2"/>
  <rect x="18" y="18" width="484" height="324" rx="30" fill="white" stroke="#ead8c2" stroke-width="3"/>
  <rect x="42" y="34" width="436" height="216" rx="80" fill="#fff8ef" stroke="#b86b3a" stroke-width="8"/>
        <ellipse cx="230" cy="142" rx="76" ry="40" fill="#b86b3a" stroke="#241a14" stroke-width="8"/>
        <ellipse cx="320" cy="116" rx="35" ry="43" fill="#e45b2d" stroke="#241a14" stroke-width="8" transform="rotate(-7 320 116)"/>
        <path d="M299 78 L277 24 L316 61 Z" fill="#2f7d5a" stroke="#241a14" stroke-width="7" stroke-linejoin="round"/>
        <path d="M339 78 L368 25 L365 82 Z" fill="#2f7d5a" stroke="#241a14" stroke-width="7" stroke-linejoin="round"/>
        <ellipse cx="329" cy="132" rx="25" ry="16" fill="#fff8ef" stroke="#241a14" stroke-width="5"/>
        <circle cx="334" cy="108" r="5" fill="#241a14"/>
        <circle cx="345" cy="131" r="3" fill="#241a14"/>
        <path d="M318 144 Q332 154 351 143" fill="none" stroke="#241a14" stroke-width="5" stroke-linecap="round"/>
        <rect x="176" y="172" width="17" height="50" rx="9" fill="#241a14"/><rect x="250" y="172" width="17" height="50" rx="9" fill="#241a14"/><rect x="300" y="164" width="17" height="53" rx="9" fill="#241a14"/>
        <path d="M155 136 Q119 107 108 70" fill="none" stroke="#241a14" stroke-width="10" stroke-linecap="round"/>
        <circle cx="106" cy="66" r="9" fill="#e45b2d"/>
        <circle cx="405" cy="70" r="28" fill="#2f7d5a"/><text x="405" y="80" text-anchor="middle" font-family="Arial" font-size="24" font-weight="900" fill="white">★</text><path d="M93 205 H430" stroke="#e45b2d" stroke-width="7" stroke-linecap="round" opacity=".75"/><path d="M105 82 L260 38 L415 82" fill="none" stroke="#2f7d5a" stroke-width="9" stroke-linecap="round" stroke-linejoin="round"/>
  <text x="260" y="304" text-anchor="middle" font-family="Arial, Helvetica, sans-serif" font-size="42" font-weight="900" fill="#241a14" letter-spacing="-1.5">burro.cl</text>
  <text x="260" y="329" text-anchor="middle" font-family="Arial, Helvetica, sans-serif" font-size="13" font-weight="900" fill="#b86b3a" letter-spacing="2.5">SELLO</text>
</svg>