<svg xmlns="http://www.w3.org/2000/svg" width="520" height="360" viewBox="0 0 520 360" role="img" aria-labelledby="title desc">
  <title id="title">Logo 29: Burro animal 29 · conserje</title>
  <desc id="desc">Logo para burro.cl con un burro animal al centro, estilo conserje.</desc>
  <rect width="520" height="360" rx="34" fill="#fffaf2"/>
  <rect x="18" y="18" width="484" height="324" rx="30" fill="white" stroke="#ead8c2" stroke-width="3"/>
  <rect x="42" y="34" width="436" height="216" rx="38" fill="#f4eadb" stroke="#a56a43" stroke-width="8"/>
        <ellipse cx="230" cy="145" rx="76" ry="49" fill="#a56a43" stroke="#2a1b14" stroke-width="8"/>
        <ellipse cx="332" cy="116" rx="39" ry="43" fill="#c85d2a" stroke="#2a1b14" stroke-width="8" transform="rotate(2 332 116)"/>
        <path d="M311 78 L289 24 L328 61 Z" fill="#233f32" stroke="#2a1b14" stroke-width="7" stroke-linejoin="round"/>
        <path d="M351 78 L380 25 L377 82 Z" fill="#233f32" stroke="#2a1b14" stroke-width="7" stroke-linejoin="round"/>
        <ellipse cx="341" cy="132" rx="25" ry="16" fill="#f4eadb" stroke="#2a1b14" stroke-width="5"/>
        <circle cx="346" cy="108" r="5" fill="#2a1b14"/>
        <circle cx="357" cy="131" r="3" fill="#2a1b14"/>
        <path d="M330 144 Q344 154 363 143" fill="none" stroke="#2a1b14" stroke-width="5" stroke-linecap="round"/>
        <rect x="176" y="175" width="17" height="50" rx="9" fill="#2a1b14"/><rect x="250" y="175" width="17" height="50" rx="9" fill="#2a1b14"/><rect x="300" y="167" width="17" height="53" rx="9" fill="#2a1b14"/>
        <path d="M155 139 Q119 110 108 73" fill="none" stroke="#2a1b14" stroke-width="10" stroke-linecap="round"/>
        <circle cx="106" cy="69" r="9" fill="#c85d2a"/>
        <circle cx="405" cy="70" r="28" fill="#233f32"/><text x="405" y="80" text-anchor="middle" font-family="Arial" font-size="24" font-weight="900" fill="white">CL</text><path d="M93 205 H430" stroke="#c85d2a" stroke-width="7" stroke-linecap="round" opacity=".75"/>
  <text x="260" y="304" text-anchor="middle" font-family="Arial, Helvetica, sans-serif" font-size="42" font-weight="900" fill="#2a1b14" letter-spacing="-1.5">burro.cl</text>
  <text x="260" y="329" text-anchor="middle" font-family="Arial, Helvetica, sans-serif" font-size="13" font-weight="900" fill="#a56a43" letter-spacing="2.5">CONSERJE</text>
</svg>