<svg xmlns="http://www.w3.org/2000/svg" width="520" height="360" viewBox="0 0 520 360" role="img" aria-labelledby="title desc">
  <title id="title">Logo 39: Burro animal 39 · rústico</title>
  <desc id="desc">Logo para burro.cl con un burro animal al centro, estilo rústico.</desc>
  <rect width="520" height="360" rx="34" fill="#fffaf2"/>
  <rect x="18" y="18" width="484" height="324" rx="30" fill="white" stroke="#ead8c2" stroke-width="3"/>
  <path d="M260 22 L454 86 L420 250 H100 L66 86 Z" fill="#f4eadb" stroke="#a56a43" stroke-width="8"/>
        <ellipse cx="230" cy="148" rx="90" ry="49" fill="#a56a43" stroke="#2a1b14" stroke-width="8"/>
        <ellipse cx="332" cy="112" rx="43" ry="49" fill="#c85d2a" stroke="#2a1b14" stroke-width="8" transform="rotate(2 332 112)"/>
        <path d="M311 74 L289 20 L328 57 Z" fill="#233f32" stroke="#2a1b14" stroke-width="7" stroke-linejoin="round"/>
        <path d="M351 74 L380 21 L377 78 Z" fill="#233f32" stroke="#2a1b14" stroke-width="7" stroke-linejoin="round"/>
        <ellipse cx="341" cy="128" rx="25" ry="16" fill="#f4eadb" stroke="#2a1b14" stroke-width="5"/>
        <circle cx="346" cy="104" r="5" fill="#2a1b14"/>
        <circle cx="357" cy="127" r="3" fill="#2a1b14"/>
        <path d="M330 140 Q344 150 363 139" fill="none" stroke="#2a1b14" stroke-width="5" stroke-linecap="round"/>
        <rect x="176" y="178" width="17" height="50" rx="9" fill="#2a1b14"/><rect x="250" y="178" width="17" height="50" rx="9" fill="#2a1b14"/><rect x="300" y="170" width="17" height="53" rx="9" fill="#2a1b14"/>
        <path d="M155 142 Q119 113 108 76" fill="none" stroke="#2a1b14" stroke-width="10" stroke-linecap="round"/>
        <circle cx="106" cy="72" r="9" fill="#c85d2a"/>
        <circle cx="405" cy="70" r="28" fill="#233f32"/><text x="405" y="80" text-anchor="middle" font-family="Arial" font-size="24" font-weight="900" fill="white">CL</text>
  <text x="260" y="304" text-anchor="middle" font-family="Arial, Helvetica, sans-serif" font-size="42" font-weight="900" fill="#2a1b14" letter-spacing="-1.5">burro.cl</text>
  <text x="260" y="329" text-anchor="middle" font-family="Arial, Helvetica, sans-serif" font-size="13" font-weight="900" fill="#a56a43" letter-spacing="2.5">RÚSTICO</text>
</svg>