<svg xmlns="http://www.w3.org/2000/svg" width="520" height="360" viewBox="0 0 520 360" role="img" aria-labelledby="title desc">
  <title id="title">Logo 45: Burro animal 45 · profesional</title>
  <desc id="desc">Logo para burro.cl con un burro animal al centro, estilo profesional.</desc>
  <rect width="520" height="360" rx="34" fill="#fffaf2"/>
  <rect x="18" y="18" width="484" height="324" rx="30" fill="white" stroke="#ead8c2" stroke-width="3"/>
  <rect x="42" y="34" width="436" height="216" rx="38" fill="#fffaf2" stroke="#70472e" stroke-width="8"/>
        <ellipse cx="230" cy="148" rx="76" ry="52" fill="#70472e" stroke="#20130d" stroke-width="8"/>
        <ellipse cx="336" cy="116" rx="43" ry="43" fill="#e45b2d" stroke="#20130d" stroke-width="8" transform="rotate(5 336 116)"/>
        <path d="M315 78 L293 24 L332 61 Z" fill="#2f7d5a" stroke="#20130d" stroke-width="7" stroke-linejoin="round"/>
        <path d="M355 78 L384 25 L381 82 Z" fill="#2f7d5a" stroke="#20130d" stroke-width="7" stroke-linejoin="round"/>
        <ellipse cx="345" cy="132" rx="25" ry="16" fill="#fffaf2" stroke="#20130d" stroke-width="5"/>
        <circle cx="350" cy="108" r="5" fill="#20130d"/>
        <circle cx="361" cy="131" r="3" fill="#20130d"/>
        <path d="M334 144 Q348 154 367 143" fill="none" stroke="#20130d" stroke-width="5" stroke-linecap="round"/>
        <rect x="176" y="178" width="17" height="50" rx="9" fill="#20130d"/><rect x="250" y="178" width="17" height="50" rx="9" fill="#20130d"/><rect x="300" y="170" width="17" height="53" rx="9" fill="#20130d"/>
        <path d="M155 142 Q119 113 108 76" fill="none" stroke="#20130d" stroke-width="10" stroke-linecap="round"/>
        <circle cx="106" cy="72" r="9" fill="#e45b2d"/>
        <circle cx="405" cy="70" r="28" fill="#2f7d5a"/><text x="405" y="80" text-anchor="middle" font-family="Arial" font-size="24" font-weight="900" fill="white">●</text>
  <text x="260" y="304" text-anchor="middle" font-family="Arial, Helvetica, sans-serif" font-size="42" font-weight="900" fill="#20130d" letter-spacing="-1.5">burro.cl</text>
  <text x="260" y="329" text-anchor="middle" font-family="Arial, Helvetica, sans-serif" font-size="13" font-weight="900" fill="#70472e" letter-spacing="2.5">PROFESIONAL</text>
</svg>