<svg xmlns="http://www.w3.org/2000/svg" width="520" height="300" viewBox="0 0 520 300" role="img" aria-label="Burro app">
<title>Burro app</title>

        <rect width="520" height="300" rx="30" fill="#fff3e3"/>
        <g transform="translate(50 70)">
        <path d="M52 51c-4-16 4-30 19-30 12 0 18 9 20 22 6-10 16-15 27-9 14 8 14 25 5 39-9 15-25 28-43 55C61 99 47 72 52 51Z" fill="#e45b2d"/>
        <path d="M41 123h78" stroke="#241a14" stroke-width="12" stroke-linecap="round"/>
        <circle cx="72" cy="63" r="5" fill="#fff3e3"/><circle cx="96" cy="63" r="5" fill="#fff3e3"/>
        <path d="M70 85c7 6 14 6 22 0" stroke="#fff3e3" stroke-width="6" stroke-linecap="round" fill="none"/></g>
        <text x="220" y="135" font-family="Arial, Helvetica, sans-serif" font-size="60" font-weight="900" fill="#241a14">burro.cl</text>
        <text x="224" y="176" font-family="Arial, Helvetica, sans-serif" font-size="18" font-weight="800" letter-spacing="3" fill="#e45b2d">SERVICIOS CONFIABLES</text>
</svg>