<svg xmlns="http://www.w3.org/2000/svg" width="560" height="420" viewBox="0 0 560 420" role="img" aria-labelledby="title desc">
  <title id="title">Logo 46: burro.cl burro sello 2</title>
  <desc id="desc">Logo para burro.cl con un burro realista de perfil, cuerpo completo, mirando a la derecha.</desc>
  <rect width="560" height="420" rx="34" fill="#fffaf2"/>
  <g transform="translate(20 8)">
    <rect x="34" y="34" width="452" height="292" rx="22" fill="white" stroke="#2b2018" stroke-width="5"/><rect x="54" y="54" width="412" height="252" rx="18" fill="#fff8ef" stroke="#ead8c2" stroke-width="3"/>
    
    <g transform="translate(260 178) scale(0.95) translate(-260 -178)" opacity=".98">
      <path d="M118 180 C126 144, 160 126, 220 124 C286 122, 327 139, 340 174 C354 211, 316 230, 242 229 C174 228, 122 214, 118 180Z" fill="#7d6758" stroke="#2b2018" stroke-width="8" stroke-linejoin="round"/>
      <path d="M333 150 C354 116, 380 91, 408 100 C431 108, 436 137, 423 160 C411 181, 383 190, 353 178" fill="#7d6758" stroke="#2b2018" stroke-width="8" stroke-linejoin="round"/>
      <path d="M396 104 L382 44 L414 92" fill="#7d6758" stroke="#2b2018" stroke-width="7" stroke-linejoin="round"/>
      <path d="M419 110 L444 55 L439 120" fill="#7d6758" stroke="#2b2018" stroke-width="7" stroke-linejoin="round"/>
      <path d="M405 148 C421 145, 438 145, 448 153 C438 170, 418 174, 400 165" fill="#f4eadb" stroke="#2b2018" stroke-width="6" stroke-linejoin="round"/>
      <circle cx="410" cy="122" r="5.5" fill="#2b2018"/>
      <path d="M416 158 Q427 164 440 158" fill="none" stroke="#2b2018" stroke-width="4" stroke-linecap="round"/>
      <path d="M356 121 C368 113, 381 108, 393 105" fill="none" stroke="#2b2018" stroke-width="7" stroke-linecap="round"/>
      <path d="M124 172 C92 157, 77 136, 69 113" fill="none" stroke="#2b2018" stroke-width="7" stroke-linecap="round"/>
      <path d="M68 113 Q54 106 55 92" fill="none" stroke="#e45b2d" stroke-width="6" stroke-linecap="round"/>
      <path d="M156 215 L144 292" stroke="#2b2018" stroke-width="8" stroke-linecap="round"/>
      <path d="M206 225 L200 294" stroke="#2b2018" stroke-width="8" stroke-linecap="round"/>
      <path d="M282 225 L294 294" stroke="#2b2018" stroke-width="8" stroke-linecap="round"/>
      <path d="M326 208 L344 288" stroke="#2b2018" stroke-width="8" stroke-linecap="round"/>
      <path d="M132 294 H158 M187 296 H211 M281 296 H307 M333 290 H358" stroke="#2b2018" stroke-width="6" stroke-linecap="round"/>
      <path d="M172 132 C202 152, 274 154, 323 141" fill="none" stroke="white" stroke-width="5" opacity=".35" stroke-linecap="round"/>
    </g>
    <path d="M128 94 L260 52 L392 94" fill="none" stroke="#e45b2d" stroke-width="8" stroke-linecap="round" stroke-linejoin="round"/>
    <text x="260" y="348" text-anchor="middle" font-family="Arial, Helvetica, sans-serif" font-size="44" font-weight="900" fill="#2b2018" letter-spacing="-1.6">burro.cl</text>
    <text x="260" y="374" text-anchor="middle" font-family="Arial, Helvetica, sans-serif" font-size="13" font-weight="900" fill="#e45b2d" letter-spacing="2.4">BURRO SELLO 2</text>
  </g>
</svg>